<svg width="712" height="691" version="1.1" xmlns="http://www.w3.org/2000/svg" desc="Created with imagetracer.js version 1.2.6" ><path fill="rgb(210,226,240)" stroke="rgb(210,226,240)" stroke-width="1" opacity="1" d="M 623.5 106 L 626 106.5 L 623.5 107 L 623.5 106 Z " /><path fill="rgb(210,226,240)" stroke="rgb(210,226,240)" stroke-width="1" opacity="1" d="M 627.5 107 L 632 108.5 L 630.5 109 L 627.5 108 L 627.5 107 Z " /><path fill="rgb(210,226,240)" stroke="rgb(210,226,240)" stroke-width="1" opacity="1" d="M 633.5 109 Q 641.8 112.2 647 118.5 L 653 129.5 L 652 129.5 Q 648.2 118.8 639.5 113 L 633.5 110 L 633.5 109 Z " /><path fill="rgb(210,226,240)" stroke="rgb(210,226,240)" stroke-width="1" opacity="1" d="M 655.5 138 L 656 140.5 L 655 140.5 L 655.5 138 Z " /><path fill="rgb(210,226,240)" stroke="rgb(210,226,240)" stroke-width="1" opacity="1" d="M 656.5 145 L 657 148.5 L 656 148.5 L 656.5 145 Z " /><path fill="rgb(210,226,240)" stroke="rgb(210,226,240)" stroke-width="1" opacity="1" d="M 272.5 177 L 420 177.5 L 272.5 178 L 272.5 177 Z " /><path fill="rgb(210,226,240)" stroke="rgb(210,226,240)" stroke-width="1" opacity="1" d="M 426.5 179 L 435 184.5 L 440 193.5 L 439 193.5 Q 436.1 185.4 429.5 181 Q 425.8 180.7 426.5 179 Z " /><path fill="rgb(210,226,240)" stroke="rgb(210,226,240)" stroke-width="1" opacity="1" d="M 441.5 198 L 442 200.5 L 441 200.5 L 441.5 198 Z " /><path fill="rgb(210,226,240)" stroke="rgb(210,226,240)" stroke-width="1" opacity="1" d="M 442.5 203 L 443 205.5 L 442 205.5 L 442.5 203 Z " /><path fill="rgb(210,226,240)" stroke="rgb(210,226,240)" stroke-width="1" opacity="1" d="M 443.5 213 L 444 226.5 L 443 226.5 L 443.5 213 Z " /><path fill="rgb(210,226,240)" stroke="rgb(210,226,240)" stroke-width="1" opacity="1" d="M 442.5 233 L 443 235.5 L 442 235.5 L 442.5 233 Z " /><path fill="rgb(210,226,240)" stroke="rgb(210,226,240)" stroke-width="1" opacity="1" d="M 441.5 238 L 442 240.5 L 441 240.5 L 441.5 238 Z " /><path fill="rgb(210,226,240)" stroke="rgb(210,226,240)" stroke-width="1" opacity="1" d="M 437.5 249 L 436 251.5 L 433.5 255 L 426.5 258 L 426.5 257 L 430.5 256 L 437.5 249 Z " /><path fill="rgb(210,226,240)" stroke="rgb(210,226,240)" stroke-width="1" opacity="1" d="M 415.5 258 L 425 258.5 L 415.5 259 L 415.5 258 Z " /><path fill="rgb(210,226,240)" stroke="rgb(210,226,240)" stroke-width="1" opacity="1" d="M 586.5 388 L 589 388.5 L 586.5 389 L 586.5 388 Z " /><path fill="rgb(210,226,240)" stroke="rgb(210,226,240)" stroke-width="1" opacity="1" d="M 616.5 392 L 617.5 394 L 616.5 392 Z " /><path fill="rgb(210,226,240)" stroke="rgb(210,226,240)" stroke-width="1" opacity="1" d="M 621.5 395 L 622.5 397 L 621.5 395 Z " /><path fill="rgb(210,226,240)" stroke="rgb(210,226,240)" stroke-width="1" opacity="1" d="M 568.5 396 L 567.5 398 L 568.5 396 Z " /><path fill="rgb(210,226,240)" stroke="rgb(210,226,240)" stroke-width="1" opacity="1" d="M 626.5 399 L 629.5 403 L 626.5 399 Z " /><path fill="rgb(210,226,240)" stroke="rgb(210,226,240)" stroke-width="1" opacity="1" d="M 559.5 405 L 558.5 407 L 559.5 405 Z " /><path fill="rgb(210,226,240)" stroke="rgb(210,226,240)" stroke-width="1" opacity="1" d="M 632.5 406 L 633.5 408 L 632.5 406 Z " /><path fill="rgb(210,226,240)" stroke="rgb(210,226,240)" stroke-width="1" opacity="1" d="M 557.5 408 L 556.5 410 L 557.5 408 Z " /><path fill="rgb(210,226,240)" stroke="rgb(210,226,240)" stroke-width="1" opacity="1" d="M 592.5 408 L 598 408.5 L 592.5 409 L 592.5 408 Z " /><path fill="rgb(210,226,240)" stroke="rgb(210,226,240)" stroke-width="1" opacity="1" d="M 607.5 411 L 608.5 413 L 607.5 411 Z " /><path fill="rgb(210,226,240)" stroke="rgb(210,226,240)" stroke-width="1" opacity="1" d="M 635.5 411 L 636.5 413 L 635.5 411 Z " /><path fill="rgb(210,226,240)" stroke="rgb(210,226,240)" stroke-width="1" opacity="1" d="M 580.5 413 L 579.5 415 L 580.5 413 Z " /><path fill="rgb(210,226,240)" stroke="rgb(210,226,240)" stroke-width="1" opacity="1" d="M 610.5 413 L 615.5 419 L 610.5 413 Z " /><path fill="rgb(210,226,240)" stroke="rgb(210,226,240)" stroke-width="1" opacity="1" d="M 576.5 417 L 574.5 420 L 576.5 417 Z " /><path fill="rgb(210,226,240)" stroke="rgb(210,226,240)" stroke-width="1" opacity="1" d="M 550.5 425 L 551 427.5 L 550 427.5 L 550.5 425 Z " /><path fill="rgb(210,226,240)" stroke="rgb(210,226,240)" stroke-width="1" opacity="1" d="M 552 425 L 554 425.5 L 552 426.5 L 552 425 Z " /><path fill="rgb(210,226,240)" stroke="rgb(210,226,240)" stroke-width="1" opacity="1" d="M 556.5 426 L 559 426.5 L 556.5 427 L 556.5 426 Z " /><path fill="rgb(210,226,240)" stroke="rgb(210,226,240)" stroke-width="1" opacity="1" d="M 561.5 427 L 564 427.5 L 561.5 428 L 561.5 427 Z " /><path fill="rgb(210,226,240)" stroke="rgb(210,226,240)" stroke-width="1" opacity="1" d="M 553.5 428 L 554.5 430 L 553.5 428 Z " /><path fill="rgb(210,226,240)" stroke="rgb(210,226,240)" stroke-width="1" opacity="1" d="M 620.5 431 L 621 435.5 L 620 435.5 L 620.5 431 Z " /><path fill="rgb(210,226,240)" stroke="rgb(210,226,240)" stroke-width="1" opacity="1" d="M 590.5 432 L 593 432.5 L 590.5 433 L 590.5 432 Z " /><path fill="rgb(210,226,240)" stroke="rgb(210,226,240)" stroke-width="1" opacity="1" d="M 556.5 433 L 557.5 435 L 556.5 433 Z " /><path fill="rgb(210,226,240)" stroke="rgb(210,226,240)" stroke-width="1" opacity="1" d="M 550.5 439 L 551 441.5 L 550 441.5 L 550.5 439 Z " /><path fill="rgb(210,226,240)" stroke="rgb(210,226,240)" stroke-width="1" opacity="1" d="M 557.5 439 L 556.5 441 L 557.5 439 Z " /><path fill="rgb(210,226,240)" stroke="rgb(210,226,240)" stroke-width="1" opacity="1" d="M 640.5 440 L 641 442.5 L 640 442.5 L 640.5 440 Z " /><path fill="rgb(210,226,240)" stroke="rgb(210,226,240)" stroke-width="1" opacity="1" d="M 546.5 445 L 545.5 447 L 546.5 445 Z " /><path fill="rgb(210,226,240)" stroke="rgb(210,226,240)" stroke-width="1" opacity="1" d="M 617.5 445 L 616.5 447 L 617.5 445 Z " /><path fill="rgb(210,226,240)" stroke="rgb(210,226,240)" stroke-width="1" opacity="1" d="M 541.5 448 L 540.5 450 L 541.5 448 Z " /><path fill="rgb(210,226,240)" stroke="rgb(210,226,240)" stroke-width="1" opacity="1" d="M 574.5 448 L 576.5 451 L 574.5 448 Z " /><path fill="rgb(210,226,240)" stroke="rgb(210,226,240)" stroke-width="1" opacity="1" d="M 615.5 448 L 610.5 454 L 615.5 448 Z " /><path fill="rgb(210,226,240)" stroke="rgb(210,226,240)" stroke-width="1" opacity="1" d="M 536.5 451 L 535.5 453 L 536.5 451 Z " /><path fill="rgb(210,226,240)" stroke="rgb(210,226,240)" stroke-width="1" opacity="1" d="M 578.5 452 L 580.5 455 L 578.5 452 Z " /><path fill="rgb(210,226,240)" stroke="rgb(210,226,240)" stroke-width="1" opacity="1" d="M 531.5 454 L 530.5 456 L 531.5 454 Z " /><path fill="rgb(210,226,240)" stroke="rgb(210,226,240)" stroke-width="1" opacity="1" d="M 555.5 454 L 556.5 456 L 555.5 454 Z " /><path fill="rgb(210,226,240)" stroke="rgb(210,226,240)" stroke-width="1" opacity="1" d="M 608.5 454 L 607.5 456 L 608.5 454 Z " /><path fill="rgb(210,226,240)" stroke="rgb(210,226,240)" stroke-width="1" opacity="1" d="M 526.5 457 L 525.5 459 L 526.5 457 Z " /><path fill="rgb(210,226,240)" stroke="rgb(210,226,240)" stroke-width="1" opacity="1" d="M 586.5 457 L 589 457.5 L 587.5 460 L 586.5 457 Z " /><path fill="rgb(210,226,240)" stroke="rgb(210,226,240)" stroke-width="1" opacity="1" d="M 656.5 457 L 657 461.5 L 656 461.5 L 656.5 457 Z " /><path fill="rgb(210,226,240)" stroke="rgb(210,226,240)" stroke-width="1" opacity="1" d="M 592.5 458 L 599 458.5 L 592.5 459 L 592.5 458 Z " /><path fill="rgb(210,226,240)" stroke="rgb(210,226,240)" stroke-width="1" opacity="1" d="M 559.5 460 L 560.5 462 L 559.5 460 Z " /><path fill="rgb(210,226,240)" stroke="rgb(210,226,240)" stroke-width="1" opacity="1" d="M 632.5 460 L 631.5 462 L 632.5 460 Z " /><path fill="rgb(210,226,240)" stroke="rgb(210,226,240)" stroke-width="1" opacity="1" d="M 573.5 463 L 576 464.5 L 574.5 464 L 573.5 463 Z " /><path fill="rgb(210,226,240)" stroke="rgb(210,226,240)" stroke-width="1" opacity="1" d="M 513.5 465 L 512.5 467 L 513.5 465 Z " /><path fill="rgb(210,226,240)" stroke="rgb(210,226,240)" stroke-width="1" opacity="1" d="M 569.5 465 L 568.5 467 L 569.5 465 Z " /><path fill="rgb(210,226,240)" stroke="rgb(210,226,240)" stroke-width="1" opacity="1" d="M 655.5 465 L 656 467.5 L 655 467.5 L 655.5 465 Z " /><path fill="rgb(210,226,240)" stroke="rgb(210,226,240)" stroke-width="1" opacity="1" d="M 566.5 467 L 569 470.5 L 566 468.5 L 566.5 467 Z " /><path fill="rgb(210,226,240)" stroke="rgb(210,226,240)" stroke-width="1" opacity="1" d="M 508.5 468 L 507.5 470 L 508.5 468 Z " /><path fill="rgb(210,226,240)" stroke="rgb(210,226,240)" stroke-width="1" opacity="1" d="M 577.5 468 L 578.5 470 L 577.5 468 Z " /><path fill="rgb(210,226,240)" stroke="rgb(210,226,240)" stroke-width="1" opacity="1" d="M 623.5 469 L 622.5 471 L 623.5 469 Z " /><path fill="rgb(210,226,240)" stroke="rgb(210,226,240)" stroke-width="1" opacity="1" d="M 654.5 469 L 655 471.5 L 653.5 474 L 653 472.5 L 654.5 469 Z " /><path fill="rgb(210,226,240)" stroke="rgb(210,226,240)" stroke-width="1" opacity="1" d="M 503.5 471 L 502.5 473 L 503.5 471 Z " /><path fill="rgb(210,226,240)" stroke="rgb(210,226,240)" stroke-width="1" opacity="1" d="M 522.5 471 L 530 471.5 L 522.5 472 L 522.5 471 Z " /><path fill="rgb(210,226,240)" stroke="rgb(210,226,240)" stroke-width="1" opacity="1" d="M 560.5 471 L 559.5 473 L 560.5 471 Z " /><path fill="rgb(210,226,240)" stroke="rgb(210,226,240)" stroke-width="1" opacity="1" d="M 570.5 471 L 571.5 473 L 570.5 471 Z " /><path fill="rgb(210,226,240)" stroke="rgb(210,226,240)" stroke-width="1" opacity="1" d="M 620.5 471 L 619.5 473 L 620.5 471 Z " /><path fill="rgb(210,226,240)" stroke="rgb(210,226,240)" stroke-width="1" opacity="1" d="M 515.5 472 L 518 472.5 L 515.5 473 L 515.5 472 Z " /><path fill="rgb(210,226,240)" stroke="rgb(210,226,240)" stroke-width="1" opacity="1" d="M 580.5 473 L 583 474 L 582.5 476 L 580.5 473 Z " /><path fill="rgb(210,226,240)" stroke="rgb(210,226,240)" stroke-width="1" opacity="1" d="M 498.5 474 L 497.5 476 L 498.5 474 Z " /><path fill="rgb(210,226,240)" stroke="rgb(210,226,240)" stroke-width="1" opacity="1" d="M 652.5 475 L 653 476.5 L 643.5 489 L 635.5 493 L 635.5 492 Q 642.9 489.9 647 484.5 L 652.5 475 Z " /><path fill="rgb(210,226,240)" stroke="rgb(210,226,240)" stroke-width="1" opacity="1" d="M 495.5 476 L 498 477.5 L 496.5 478 L 495.5 476 Z " /><path fill="rgb(210,226,240)" stroke="rgb(210,226,240)" stroke-width="1" opacity="1" d="M 544.5 476 L 546.5 479 L 544.5 476 Z " /><path fill="rgb(210,226,240)" stroke="rgb(210,226,240)" stroke-width="1" opacity="1" d="M 493.5 477 L 494.5 479 L 492 478.5 L 493.5 477 Z " /><path fill="rgb(210,226,240)" stroke="rgb(210,226,240)" stroke-width="1" opacity="1" d="M 587.5 478 L 590 478.5 L 587.5 479 L 587.5 478 Z " /><path fill="rgb(210,226,240)" stroke="rgb(210,226,240)" stroke-width="1" opacity="1" d="M 602.5 478 L 605 478.5 L 602.5 479 L 602.5 478 Z " /><path fill="rgb(210,226,240)" stroke="rgb(210,226,240)" stroke-width="1" opacity="1" d="M 629.5 494 L 632 494.5 L 629.5 495 L 629.5 494 Z " /><path fill="rgb(210,226,240)" stroke="rgb(210,226,240)" stroke-width="1" opacity="1" d="M 625.5 495 L 628 495.5 L 625.5 496 L 625.5 495 Z " /><path fill="rgb(255,255,255)" stroke="rgb(255,255,255)" stroke-width="1" opacity="1" d="M 272 105 L 619.5 105 L 636.5 111 L 648 121.5 L 655 136.5 L 656 148.5 L 657 149.5 L 657 456.5 L 653 474.5 L 644.5 487 L 632.5 494 L 619.5 497 L 272 497 L 272 259.5 L 273.5 258 L 414.5 258 L 415.5 259 L 424.5 259 Q 432.1 257.6 436 252.5 L 442 240.5 L 443 227.5 L 444 226.5 L 444 213.5 L 443 212.5 L 443 203.5 L 440 192.5 L 433.5 183 L 427.5 179 L 419.5 177 L 272 177 L 272 105 Z M 587 388 Q 576 390 569 396 Q 554 406 550 426 L 550 442 L 551 443 L 494 477 L 493 479 L 519 472 Q 539 469 547 479 L 553 477 L 566 469 Q 574 477 588 479 L 605 479 Q 615 477 623 471 Q 636 461 641 443 Q 643 429 640 421 Q 637 410 630 403 Q 622 393 609 389 Q 600 386 587 388 Z " /><path fill="rgb(255,255,255)" stroke="rgb(255,255,255)" stroke-width="1" opacity="1" d="M 590.5 409 Q 609.8 407.8 616 419.5 L 620 428.5 L 620 438.5 Q 617.3 448.8 609.5 454 Q 602.6 459.8 589 458 L 596 433 L 572.5 429 L 571 427.5 Q 573.3 419.8 578.5 415 L 590.5 409 Z " /><path fill="rgb(255,255,255)" stroke="rgb(255,255,255)" stroke-width="1" opacity="1" d="M 553 426 L 570 429 Q 568.5 448.1 580.5 455 L 587 458.5 L 583 474 L 580 472.5 L 574.5 463 L 565.5 467 Q 554.9 459.1 552 443.5 L 560 438.5 L 553 426 Z " /><path fill="rgb(0,0,0)" stroke="rgb(0,0,0)" stroke-width="1" opacity="0" d="M 0 0 L 130 0.5 Q 97.9 6.4 82 28.5 Q 72.5 39.5 68 55.5 L 66 66.5 L 66 83.5 L 69 98.5 L 74 110.5 Q 81.2 123.8 92.5 133 Q 104.1 143.9 121.5 149 L 132.5 151 L 150.5 151 L 161.5 149 L 178.5 142 Q 192.2 133.7 202 121.5 Q 210.8 110.8 215 95.5 L 217 85.5 L 217 64.5 Q 211.4 35.1 192.5 19 L 173.5 6 Q 164.9 1.6 153 0.5 L 425.5 0 L 425.5 1 Q 400.4 2.4 389 17.5 L 383 29.5 L 381 46 L 272 46 L 272 178 L 195.5 178 Q 186.5 196 171.5 208 Q 157.5 220 138.5 227 Q 115.5 216 100 197.5 L 84.5 178 L 38.5 178 Q 20.6 181.1 11 192.5 Q 3 201.5 0.5 216 L 0 0 Z " /><path fill="rgb(0,0,0)" stroke="rgb(0,0,0)" stroke-width="1" opacity="0" d="M 456.5 0 L 712 0 L 712 89.5 L 711 89.5 Q 708.3 66.7 693.5 56 L 682.5 50 L 666.5 46 L 498 46 Q 499.7 33 496 24.5 Q 491.7 14.8 483.5 9 L 473.5 4 L 462.5 1 L 456.5 1 L 456.5 0 Z " /><path fill="rgb(0,0,0)" stroke="rgb(0,0,0)" stroke-width="1" opacity="0" d="M 233 258 L 271.5 258 L 272 258.5 L 272 552 L 669.5 552 L 684.5 548 L 692.5 544 L 702 535.5 Q 709.8 526.3 711.5 511 L 712 691 L 572.5 691 L 564 682.5 L 461.5 568 L 419.5 568 L 417 570.5 L 317 686.5 L 364.5 687 L 440.5 603 L 452 613.5 L 523 690.5 L 105.5 691 L 105.5 690 Q 129 686.5 140 670.5 L 145 661 Q 147.7 659.9 147 662.5 Q 153.1 673.5 162.5 681 Q 170.3 686.7 181.5 689 L 197.5 689 Q 214.3 686.3 223 675.5 Q 230.3 666.3 233 652.5 L 233 258 Z " /><path fill="rgb(0,0,0)" stroke="rgb(0,0,0)" stroke-width="1" opacity="0" d="M 0.5 402 Q 2 413 9.5 418 L 21.5 423 L 55 423 L 55 654.5 Q 59.3 672.7 71.5 683 Q 77.6 689.4 89 690.5 L 0 691 L 0.5 402 Z " /><path fill="rgb(9,86,155)" stroke="rgb(9,86,155)" stroke-width="1" opacity="1" d="M 272.5 102 L 273 104 L 620.5 104 L 624 105.5 L 621.5 106 L 620.5 105 L 273.5 105 L 272 103.5 L 272.5 102 Z " /><path fill="rgb(9,86,155)" stroke="rgb(9,86,155)" stroke-width="1" opacity="1" d="M 640.5 112 L 641.5 114 L 640.5 112 Z " /><path fill="rgb(9,86,155)" stroke="rgb(9,86,155)" stroke-width="1" opacity="1" d="M 656.5 140 L 657 142.5 L 656 142.5 L 656.5 140 Z " /><path fill="rgb(9,86,155)" stroke="rgb(9,86,155)" stroke-width="1" opacity="1" d="M 657.5 148 L 658 457.5 L 657 457.5 L 657.5 148 Z " /><path fill="rgb(9,86,155)" stroke="rgb(9,86,155)" stroke-width="1" opacity="1" d="M 419.5 178 L 422 178.5 L 419.5 179 L 419.5 178 Z " /><path fill="rgb(9,86,155)" stroke="rgb(9,86,155)" stroke-width="1" opacity="1" d="M 430.5 182 L 431.5 184 L 430.5 182 Z " /><path fill="rgb(9,86,155)" stroke="rgb(9,86,155)" stroke-width="1" opacity="1" d="M 434.5 186 L 435.5 188 L 434.5 186 Z " /><path fill="rgb(9,86,155)" stroke="rgb(9,86,155)" stroke-width="1" opacity="1" d="M 442.5 208 L 443 213.5 L 442 213.5 L 442.5 208 Z " /><path fill="rgb(9,86,155)" stroke="rgb(9,86,155)" stroke-width="1" opacity="1" d="M 442.5 226 L 443 231.5 L 442 231.5 L 442.5 226 Z " /><path fill="rgb(9,86,155)" stroke="rgb(9,86,155)" stroke-width="1" opacity="1" d="M 436.5 249 L 435.5 251 L 436.5 249 Z " /><path fill="rgb(9,86,155)" stroke="rgb(9,86,155)" stroke-width="1" opacity="1" d="M 413.5 257 L 416 257.5 L 413.5 258 L 413.5 257 Z " /><path fill="rgb(9,86,155)" stroke="rgb(9,86,155)" stroke-width="1" opacity="1" d="M 647.5 485 L 645.5 488 L 647.5 485 Z " /><path fill="rgb(9,86,155)" stroke="rgb(9,86,155)" stroke-width="1" opacity="1" d="M 273.5 497 L 621 497.5 L 273 498 L 272.5 516 L 272 498.5 L 273.5 497 Z " /><path fill="rgb(1,89,169)" stroke="rgb(1,89,169)" stroke-width="1" opacity="1" d="M 130.5 0 L 152.5 0 L 162.5 2 Q 182.6 7.9 195 21.5 Q 206.4 32.6 213 48.5 L 217 64.5 L 217 85.5 Q 211.3 118.8 188.5 135 Q 177.5 144.5 161.5 149 L 150.5 151 L 132.5 151 L 121.5 149 L 106.5 143 Q 92.4 134.6 82 122.5 Q 73.5 112.5 69 98.5 L 66 83.5 L 66 66.5 L 68 55.5 L 75 38.5 Q 83.3 24.8 95.5 15 L 114.5 4 L 130.5 0 Z " /><path fill="rgb(1,89,169)" stroke="rgb(1,89,169)" stroke-width="1" opacity="1" d="M 426.5 0 L 455.5 0 L 470.5 3 Q 484.6 6.9 492 17.5 Q 500.3 27.1 498 46 L 666.5 46 L 687.5 52 L 701 63.5 L 708 75.5 L 712 90.5 L 712 510.5 L 706 529.5 L 696.5 541 L 684.5 548 L 669.5 552 L 272 552 L 272 516.5 L 273 515.5 L 273 498 L 620.5 498 L 633.5 495 Q 642.3 491.8 648 485.5 L 654 475.5 L 658 457.5 L 658 148.5 L 654 129.5 Q 649.5 118.5 640.5 112 L 633.5 108 L 620.5 104 L 273 104 L 272 101.5 L 272 46 L 380.5 46 Q 381.5 46 381 41.5 L 384 26.5 Q 387.8 16.8 395.5 11 L 408.5 4 L 426.5 0 Z " /><path fill="rgb(1,89,169)" stroke="rgb(1,89,169)" stroke-width="1" opacity="1" d="M 38.5 178 L 84.5 178 L 86 179.5 Q 96.7 196.3 111.5 209 Q 122.7 220.8 139.5 227 Q 166.6 216.1 184 195.5 L 195.5 178 L 418.5 178 L 426.5 180 L 434 185.5 L 441 199.5 L 442 213.5 L 443 214.5 L 443 225.5 L 440 242.5 L 432.5 254 Q 427.4 258.9 416.5 258 L 415.5 257 L 272.5 257 L 271.5 258 L 233 258 L 233 652.5 Q 229.7 670.2 218.5 680 Q 206.6 691.1 181.5 689 Q 162.5 685 153 671.5 L 147 661 Q 144.3 659.9 145 662.5 Q 139.2 673.7 129.5 681 L 113.5 689 L 104.5 691 L 89.5 691 Q 73.9 688.1 66 677.5 Q 58.6 667.9 55 654.5 L 55 423 L 21.5 423 Q 10.6 420.9 5 413.5 L 0 401.5 L 0 216.5 Q 3.6 198.1 15.5 188 Q 24.5 180.5 38.5 178 Z " /><path fill="rgb(1,89,169)" stroke="rgb(1,89,169)" stroke-width="1" opacity="1" d="M 419.5 568 L 461.5 568 L 468 574.5 L 572 690.5 L 523.5 691 L 441.5 603 L 438 605.5 L 364.5 687 L 317 686.5 L 419.5 568 Z " /><path fill="rgb(14,107,176)" stroke="rgb(14,107,176)" stroke-width="1" opacity="1" d="M 272.5 257 L 413 257.5 L 272.5 258 L 272.5 257 Z " /><path fill="rgb(14,107,176)" stroke="rgb(14,107,176)" stroke-width="1" opacity="1" d="M 589.5 388 L 602.5 388 L 615.5 392 Q 625.5 397 632 405.5 L 639 418.5 L 641 426.5 L 641 439.5 Q 637.5 459 624.5 469 L 606.5 478 L 590.5 479 L 578.5 476 L 567 468.5 Q 566.3 466.3 568.5 467 L 574.5 464 L 582.5 476 L 588 458.5 L 577 452 L 571 441.5 L 570 429.5 L 568.5 428 L 552 425 L 559 439 L 551 443 Q 549.2 437.8 550 428.5 Q 553.4 408.4 566.5 398 L 580.5 390 L 589.5 388 Z M 593 408 L 581 413 Q 572 418 571 429 L 595 433 Q 593 446 588 458 L 593 459 Q 604 459 611 454 L 618 446 L 621 436 Q 621 424 616 419 Q 610 408 593 408 Z " /><path fill="rgb(14,107,176)" stroke="rgb(14,107,176)" stroke-width="1" opacity="1" d="M 549.5 444 Q 553.7 442.7 552 447.5 L 555 454.5 L 566 469 L 547.5 479 Q 543.3 473.7 535.5 472 L 522.5 471 L 521.5 472 L 510.5 473 L 494.5 478 L 494.5 477 L 549.5 444 Z " /><path fill="rgb(14,107,176)" stroke="rgb(14,107,176)" stroke-width="1" opacity="1" d="M 621.5 496 L 624 496.5 L 621.5 497 L 621.5 496 Z " /></svg>